<svg width="219" height="340" viewBox="0 0 219 340" fill="none" xmlns="http://www.w3.org/2000/svg">
<path d="M4 114V78.1101C4 64.3196 7.90859 50.8114 15.2727 39.1516C23.5425 26.0577 35.7645 15.9351 50.1696 10.2488L52.0159 9.52004C61.2558 5.87271 71.1005 4 81.0341 4H111.5M4 114V220.646C4 235.367 7.25006 249.906 13.5181 263.226L18.678 274.191C24.8199 287.242 33.7128 298.811 44.7463 308.102L51.2935 313.616C60.9969 321.787 72.2574 327.904 84.3934 331.598L85.8639 332.046C102.894 337.229 121.089 337.172 138.086 331.884C150.542 328.009 161.991 321.437 171.619 312.634L176.79 307.906C186.825 298.732 194.883 287.608 200.472 275.214L206.159 262.605C211.986 249.683 215 235.669 215 221.494V114M4 114H111.5M215 114V77.6494C215 64.1412 211.302 50.8907 204.308 39.3344L204.03 38.876C196.207 25.9506 184.532 15.7996 170.645 9.84801C161.642 5.98956 151.949 4 142.154 4H111.5M215 114H111.5M111.5 114V104M111.5 52V84M111.5 104C117.851 104 123 98.8513 123 92.5V45.5C123 39.1487 117.851 34 111.5 34M111.5 104C105.149 104 100 98.8513 100 92.5V45.5C100 39.1487 105.149 34 111.5 34M111.5 4V34" stroke="#fff" stroke-width="8" stroke-linecap="round"/>
</svg>
